:FULLY-SPECIFIED
:FORCE-ALL-JOINTS-BE-3DOF
:DEGREES
204
root -2.89705 16.3142 -36.1 3.72227 0.357125 -2.90115
lfemur -23.5192 6.6544 -8.07509
ltibia 48.398 0 0
lfoot -23.851 0.325886 0
ltoes -9.76541 0 0
rfemur -23.6893 -7.34297 14.5768
rtibia 50.5485 0 0
rfoot -27.6704 2.30086 0
rtoes -7.9318 0 0
lowerback 7.17953 1.92842 -1.8458
upperback -3.76499 2.4834 1.30844
thorax -8.14402 1.35627 2.06605
lowerneck -3.42096 -4.22286 -6.82349
upperneck 6.92208 -5.69421 6.29551
head 3.24758 -2.80453 3.08063
lclavicle 1.52918e-14 3.55532e-15 0
lhumerus -26.7388 -0.554548 88.4211
lradius 23.0414 0 0
lwrist -32.4874 0 0
lhand -28.644 30.0971 0
lfingers 7.12502 0 0
lthumb -2.00758 60.0813 0
rclavicle 1.52918e-14 3.55532e-15 0
rhumerus -32.2001 1.4548 -79.9001
rradius 30.0202 0 0
rwrist 3.26092 0 0
rhand -20.023 -26.5818 0
rfingers 7.12502 0 0
rthumb 6.31779 -56.4724 0
205
root -2.89719 16.3132 -36.0961 3.69498 0.303476 -2.89994
lfemur -23.4434 6.65026 -8.04511
ltibia 48.3882 0 0
lfoot -23.8858 0.307352 0
ltoes -9.7661 0 0
rfemur -23.6571 -7.3233 14.5666
rtibia 50.5584 0 0
rfoot -27.7004 2.34055 0
rtoes -7.89179 0 0
lowerback 7.16197 1.92636 -1.8631
upperback -3.76323 2.47736 1.30493
thorax -8.13234 1.35428 2.07365
lowerneck -3.4189 -4.28496 -6.87142
upperneck 6.93381 -5.77799 6.35544
head 3.24995 -2.84563 3.10544
lclavicle 1.44985e-14 3.20257e-15 0
lhumerus -26.7686 -0.339252 88.378
lradius 22.8179 0 0
lwrist -32.681 0 0
lhand -28.7142 30.08 0
lfingers 7.12502 0 0
lthumb -2.07539 60.0663 0
rclavicle 1.44985e-14 3.20257e-15 0
rhumerus -32.1972 1.35956 -79.9004
rradius 29.9428 0 0
rwrist 3.26693 0 0
rhand -20.0641 -26.5462 0
rfingers 7.12502 0 0
rthumb 6.27824 -56.439 0
206
root -2.89727 16.3122 -36.0921 3.66661 0.24792 -2.89844
lfemur -23.3643 6.64556 -8.01468
ltibia 48.3766 0 0
lfoot -23.9209 0.28825 0
ltoes -9.76618 0 0
rfemur -23.623 -7.30226 14.5555
rtibia 50.5672 0 0
rfoot -27.7305 2.38118 0
rtoes -7.85018 0 0
lowerback 7.14395 1.92427 -1.88097
upperback -3.76142 2.47116 1.30122
thorax -8.12035 1.35224 2.0814
lowerneck -3.41641 -4.34904 -6.9209
upperneck 6.94544 -5.86443 6.41731
head 3.25216 -2.88804 3.13106
lclavicle 1.36603e-14 2.8115e-15 0
lhumerus -26.7996 -0.116715 88.3333
lradius 22.5872 0 0
lwrist -32.8812 0 0
lhand -28.7866 30.0623 0
lfingers 7.12502 0 0
lthumb -2.1453 60.0508 0
rclavicle 1.36603e-14 2.8115e-15 0
rhumerus -32.1946 1.26095 -79.9003
rradius 29.8626 0 0
rwrist 3.27322 0 0
rhand -20.1068 -26.5093 0
rfingers 7.12502 0 0
rthumb 6.23703 -56.4043 0
207
root -2.89731 16.3112 -36.088 3.63743 0.191318 -2.8967
lfemur -23.283 6.64049 -7.98412
ltibia 48.3639 0 0
lfoot -23.9563 0.268788 0
ltoes -9.76577 0 0
rfemur -23.5877 -7.28031 14.5438
rtibia 50.5755 0 0
rfoot -27.7607 2.42213 0
rtoes -7.8077 0 0
lowerback 7.12577 1.92214 -1.89913
upperback -3.75953 2.46485 1.29734
thorax -8.10818 1.35015 2.08917
lowerneck -3.41355 -4.41425 -6.97127
upperneck 6.95681 -5.95241 6.48035
head 3.25419 -2.93121 3.15716
lclavicle 1.27853e-14 2.38657e-15 0
lhumerus -26.8313 0.109994 88.2878
lradius 22.3522 0 0
lwrist -33.085 0 0
lhand -28.8603 30.0441 0
lfingers 7.12502 0 0
lthumb -2.21639 60.0348 0
rclavicle 1.27853e-14 2.38657e-15 0
rhumerus -32.1924 1.16027 -79.8999
rradius 29.7805 0 0
rwrist 3.27975 0 0
rhand -20.1506 -26.4716 0
rfingers 7.12502 0 0
rthumb 6.19475 -56.3688 0
208
root -2.8973 16.3102 -36.084 3.60772 0.134531 -2.89477
lfemur -23.2008 6.6352 -7.95375
ltibia 48.3508 0 0
lfoot -23.9917 0.249175 0
ltoes -9.76498 0 0
rfemur -23.5516 -7.25789 14.5317
rtibia 50.5834 0 0
rfoot -27.7907 2.46277 0
rtoes -7.7651 0 0
lowerback 7.10769 1.92 -1.91733
upperback -3.75755 2.45849 1.29338
thorax -8.09597 1.34805 2.09687
lowerneck -3.41038 -4.47977 -7.02191
upperneck 6.96777 -6.0408 6.54377
head 3.25603 -2.97458 3.18343
lclavicle 1.18819e-14 1.93221e-15 0
lhumerus -26.8633 0.337806 88.2422
lradius 22.1162 0 0
lwrist -33.2897 0 0
lhand -28.9342 30.0257 0
lfingers 7.12502 0 0
lthumb -2.28771 60.0185 0
rclavicle 1.18819e-14 1.93221e-15 0
rhumerus -32.1905 1.05884 -79.899
rradius 29.6976 0 0
rwrist 3.28644 0 0
rhand -20.195 -26.4337 0
rfingers 7.12502 0 0
rthumb 6.15197 -56.3332 0
209
root -2.89726 16.3092 -36.0799 3.57777 0.0784213 -2.8927
lfemur -23.1189 6.62985 -7.92388
ltibia 48.3378 0 0
lfoot -24.0268 0.229621 0
ltoes -9.76394 0 0
rfemur -23.5153 -7.23546 14.5193
rtibia 50.5914 0 0
rfoot -27.8206 2.50247 0
rtoes -7.72312 0 0
lowerback 7.09003 1.91784 -1.93527
upperback -3.75546 2.45215 1.28937
thorax -8.08387 1.34593 2.10437
lowerneck -3.40695 -4.54474 -7.07216
upperneck 6.97815 -6.12846 6.6068
head 3.25764 -3.01759 3.20953
lclavicle 1.09585e-14 1.45285e-15 0
lhumerus -26.8951 0.56365 88.1971
lradius 21.8823 0 0
lwrist -33.4926 0 0
lhand -29.0074 30.0072 0
lfingers 7.12502 0 0
lthumb -2.35834 60.0023 0
rclavicle 1.09585e-14 1.45285e-15 0
rhumerus -32.1889 0.957977 -79.8977
rradius 29.6151 0 0
rwrist 3.29325 0 0
rhand -20.2393 -26.3961 0
rfingers 7.12502 0 0
rthumb 6.10926 -56.2979 0
210
root -2.89719 16.3082 -36.076 3.54786 0.0238493 -2.89055
lfemur -23.0385 6.62462 -7.89484
ltibia 48.3256 0 0
lfoot -24.0616 0.210333 0
ltoes -9.76275 0 0
rfemur -23.4792 -7.21346 14.5068
rtibia 50.5997 0 0
rfoot -27.8501 2.54061 0
rtoes -7.68249 0 0
lowerback 7.07305 1.91568 -1.9527
upperback -3.75324 2.44587 1.28538
thorax -8.07201 1.34381 2.11157
lowerneck -3.40333 -4.60833 -7.1214
upperneck 6.98781 -6.21428 6.66866
head 3.25901 -3.0597 3.23514
lclavicle 1.00232e-14 9.52938e-16 0
lhumerus -26.9261 0.784457 88.1533
lradius 21.6538 0 0
lwrist -33.6907 0 0
lhand -29.0788 29.989 0
lfingers 7.12502 0 0
lthumb -2.42733 59.9861 0
rclavicle 1.00232e-14 9.52938e-16 0
rhumerus -32.1876 0.858976 -79.896
rradius 29.5338 0 0
rwrist 3.30011 0 0
rhand -20.2829 -26.3595 0
rfingers 7.12502 0 0
rthumb 6.0672 -56.2635 0
211
root -2.8971 16.3072 -36.0722 3.51827 -0.0283233 -2.88837
lfemur -22.9607 6.61967 -7.86694
ltibia 48.3149 0 0
lfoot -24.0958 0.191522 0
ltoes -9.76153 0 0
rfemur -23.444 -7.19235 14.4945
rtibia 50.6087 0 0
rfoot -27.879 2.57657 0
rtoes -7.64394 0 0
lowerback 7.05704 1.91352 -1.96933
upperback -3.75087 2.43973 1.28147
thorax -8.06052 1.3417 2.11835
lowerneck -3.39957 -4.6697 -7.16897
upperneck 6.99658 -6.2971 6.72856
head 3.26013 -3.10034 3.25994
lclavicle 9.08446e-15 4.36911e-16 0
lhumerus -26.956 0.997157 88.1114
lradius 21.4338 0 0
lwrist -33.8814 0 0
lhand -29.1476 29.9712 0
lfingers 7.12502 0 0
lthumb -2.49375 59.9704 0
rclavicle 9.08446e-15 4.36911e-16 0
rhumerus -32.1866 0.763152 -79.8938
rradius 29.455 0 0
rwrist 3.30698 0 0
rhand -20.3252 -26.3244 0
rfingers 7.12502 0 0
rthumb 6.02634 -56.2305 0
212
root -2.89699 16.3061 -36.0685 3.4893 -0.0772352 -2.8862
lfemur -22.8869 6.61516 -7.84051
ltibia 48.3063 0 0
lfoot -24.1291 0.173394 0
ltoes -9.76041 0 0
rfemur -23.41 -7.17258 14.4824
rtibia 50.6188 0 0
rfoot -27.9073 2.60971 0
rtoes -7.60823 0 0
lowerback 7.04231 1.91137 -1.98489
upperback -3.74834 2.43378 1.27769
thorax -8.04956 1.33963 2.1246
lowerneck -3.39574 -4.72801 -7.21423
upperneck 7.0043 -6.37581 6.78573
head 3.26096 -3.13895 3.28362
lclavicle 8.1505e-15 -9.0793e-17 0
lhumerus -26.9843 1.19868 88.0722
lradius 21.2254 0 0
lwrist -34.0618 0 0
lhand -29.2128 29.9541 0
lfingers 7.12502 0 0
lthumb -2.55665 59.9552 0
rclavicle 8.1505e-15 -9.0793e-17 0
rhumerus -32.1861 0.671816 -79.8911
rradius 29.3797 0 0
rwrist 3.31378 0 0
rhand -20.3657 -26.2914 0
rfingers 7.12502 0 0
rthumb 5.98728 -56.1995 0
213
root -2.89687 16.305 -36.0651 3.46121 -0.122025 -2.88411
lfemur -22.8183 6.61127 -7.81586
ltibia 48.3005 0 0
lfoot -24.1615 0.15616 0
ltoes -9.75948 0 0
rfemur -23.3779 -7.15459 14.4709
rtibia 50.6303 0 0
rfoot -27.9348 2.63943 0
rtoes -7.57608 0 0
lowerback 7.02912 1.90924 -1.99912
upperback -3.74562 2.42808 1.27411
thorax -8.03924 1.3376 2.1302
lowerneck -3.39188 -4.78243 -7.25655
upperneck 7.01082 -6.44927 6.83939
head 3.2615 -3.17499 3.30583
lclavicle 7.22963e-15 -6.25736e-16 0
lhumerus -27.0105 1.38596 88.0363
lradius 21.0319 0 0
lwrist -34.2291 0 0
lhand -29.2734 29.9378 0
lfingers 7.12502 0 0
lthumb -2.61511 59.9407 0
rclavicle 7.22963e-15 -6.25736e-16 0
rhumerus -32.1858 0.586275 -79.8879
rradius 29.3089 0 0
rwrist 3.32046 0 0
rhand -20.4038 -26.261 0
rfingers 7.12502 0 0
rthumb 5.95057 -56.1711 0
214
root -2.89675 16.3038 -36.0619 3.4343 -0.161832 -2.88215
lfemur -22.756 6.60815 -7.79331
ltibia 48.2981 0 0
lfoot -24.1927 0.140028 0
ltoes -9.75888 0 0
rfemur -23.3481 -7.13884 14.46
rtibia 50.6435 0 0
rfoot -27.9613 2.66508 0
rtoes -7.54824 0 0
lowerback 7.01777 1.90713 -2.01173
upperback -3.7427 2.42268 1.27077
thorax -8.02972 1.33562 2.13506
lowerneck -3.38806 -4.83211 -7.29529
upperneck 7.01599 -6.51635 6.88876
head 3.26172 -3.20789 3.32627
lclavicle 6.33017e-15 -1.16348e-15 0
lhumerus -27.0341 1.55592 88.0045
lradius 20.8565 0 0
lwrist -34.3806 0 0
lhand -29.3284 29.9226 0
lfingers 7.12502 0 0
lthumb -2.66818 59.9272 0
rclavicle 6.33017e-15 -1.16348e-15 0
rhumerus -32.1859 0.50784 -79.8841
rradius 29.2436 0 0
rwrist 3.32697 0 0
rhand -20.4388 -26.2339 0
rfingers 7.12502 0 0
rthumb 5.9168 -56.1457 0
215
root -2.89662 16.3024 -36.0591 3.40884 -0.195793 -2.88036
lfemur -22.7012 6.60598 -7.77318
ltibia 48.2998 0 0
lfoot -24.2224 0.125207 0
ltoes -9.75872 0 0
rfemur -23.3212 -7.12578 14.4499
rtibia 50.6587 0 0
rfoot -27.9867 2.68605 0
rtoes -7.52544 0 0
lowerback 7.00854 1.90506 -2.02246
upperback -3.73956 2.41766 1.26773
thorax -8.02114 1.33371 2.13905
lowerneck -3.38434 -4.87621 -7.3298
upperneck 7.01963 -6.57593 6.93306
head 3.2616 -3.23711 3.3446
lclavicle 5.46041e-15 -1.69958e-15 0
lhumerus -27.0547 1.7055 87.9775
lradius 20.7022 0 0
lwrist -34.5134 0 0
lhand -29.3768 29.9088 0
lfingers 7.12502 0 0
lthumb -2.71493 59.9148 0
rclavicle 5.46041e-15 -1.69958e-15 0
rhumerus -32.1864 0.437821 -79.8798
rradius 29.185 0 0
rwrist 3.33324 0 0
rhand -20.4702 -26.2106 0
rfingers 7.12502 0 0
rthumb 5.88652 -56.124 0
216
root -2.89651 16.301 -36.0565 3.38512 -0.223049 -2.87879
lfemur -22.6553 6.60491 -7.75578
ltibia 48.3062 0 0
lfoot -24.2506 0.111905 0
ltoes -9.7591 0 0
rfemur -23.2976 -7.11586 14.4409
rtibia 50.6764 0 0
rfoot -28.0109 2.7017 0
rtoes -7.50843 0 0
lowerback 7.00172 1.90302 -2.03103
upperback -3.73618 2.41306 1.26506
thorax -8.01362 1.33189 2.14206
lowerneck -3.38077 -4.9139 -7.35945
upperneck 7.02161 -6.62686 6.97151
head 3.26112 -3.26207 3.36051
lclavicle 4.62865e-15 -2.22961e-15 0
lhumerus -27.0717 1.83162 87.9559
lradius 20.5723 0 0
lwrist -34.6248 0 0
lhand -29.4177 29.8965 0
lfingers 7.12502 0 0
lthumb -2.75442 59.9038 0
rclavicle 4.62865e-15 -2.22961e-15 0
rhumerus -32.1873 0.377527 -79.8749
rradius 29.1341 0 0
rwrist 3.33923 0 0
rhand -20.4974 -26.1917 0
rfingers 7.12502 0 0
rthumb 5.86032 -56.1064 0
217
root -2.89642 16.2995 -36.0544 3.36343 -0.242737 -2.87751
lfemur -22.6193 6.60512 -7.74145
ltibia 48.318 0 0
lfoot -24.277 0.100331 0
ltoes -9.76015 0 0
rfemur -23.2779 -7.10953 14.4332
rtibia 50.6968 0 0
rfoot -28.0337 2.71142 0
rtoes -7.49793 0 0
lowerback 6.99761 1.90104 -2.03717
upperback -3.73254 2.40895 1.2628
thorax -8.00731 1.33016 2.14398
lowerneck -3.37742 -4.94434 -7.38359
upperneck 7.02175 -6.66802 7.00333
head 3.26027 -3.28223 3.37367
lclavicle 3.84319e-15 -2.74912e-15 0
lhumerus -27.0848 1.93122 87.9405
lradius 20.4699 0 0
lwrist -34.7119 0 0
lhand -29.4501 29.886 0
lfingers 7.12502 0 0
lthumb -2.78572 59.8942 0
rclavicle 3.84319e-15 -2.74912e-15 0
rhumerus -32.1886 0.328267 -79.8693
rradius 29.092 0 0
rwrist 3.34486 0 0
rhand -20.5197 -26.1778 0
rfingers 7.12502 0 0
rthumb 5.83877 -56.0936 0
